<svg id="visual" viewBox="0 0 1920 1080" width="1920" height="1080" xmlns="http://www.w3.org/2000/svg" xmlns:xlink="http://www.w3.org/1999/xlink" version="1.1"><rect x="0" y="0" width="1920" height="1080" fill="#000000"></rect><defs><linearGradient id="grad1_0" x1="43.8%" y1="0%" x2="100%" y2="100%"><stop offset="14.444444444444446%" stop-color="#000000" stop-opacity="1"></stop><stop offset="85.55555555555554%" stop-color="#000000" stop-opacity="1"></stop></linearGradient></defs><defs><linearGradient id="grad2_0" x1="0%" y1="0%" x2="56.3%" y2="100%"><stop offset="14.444444444444446%" stop-color="#000000" stop-opacity="1"></stop><stop offset="85.55555555555554%" stop-color="#000000" stop-opacity="1"></stop></linearGradient></defs><g transform="translate(1920, 0)"><path d="M0 540C-63.6 524.4 -127.2 508.8 -202.4 488.7C-277.7 468.7 -364.6 444.1 -381.8 381.8C-399 319.6 -346.5 219.6 -361.2 149.6C-376 79.7 -458 39.9 -540 0L0 0Z" fill="#f0f2f9"></path></g><g transform="translate(0, 1080)"><path d="M0 -540C28.4 -438.9 56.8 -337.8 136.2 -328.9C215.6 -320 346 -403.3 381.8 -381.8C417.7 -360.4 358.9 -234.2 369.6 -153.1C380.2 -72 460.1 -36 540 0L0 0Z" fill="#f0f2f9"></path></g></svg>