<?xml version="1.0" standalone="no"?><svg xmlns="http://www.w3.org/2000/svg" viewBox="0 0 1440 320"><path fill="#0099ff" fill-opacity="1" d="M0,320L68.6,224L137.1,128L205.7,32L274.3,64L342.9,0L411.4,64L480,64L548.6,32L617.1,320L685.7,64L754.3,192L822.9,224L891.4,0L960,224L1028.6,64L1097.1,256L1165.7,160L1234.3,64L1302.9,256L1371.4,160L1440,256L1440,320L1371.4,320L1302.9,320L1234.3,320L1165.7,320L1097.1,320L1028.6,320L960,320L891.4,320L822.9,320L754.3,320L685.7,320L617.1,320L548.6,320L480,320L411.4,320L342.9,320L274.3,320L205.7,320L137.1,320L68.6,320L0,320Z"></path></svg>